<?xml version="1.0" standalone="no"?><!DOCTYPE svg PUBLIC "-//W3C//DTD SVG 1.1//EN"
        "http://www.w3.org/Graphics/SVG/1.1/DTD/svg11.dtd">
<svg t="1628078743843" class="icon" viewBox="0 0 1024 1024" version="1.1" xmlns="http://www.w3.org/2000/svg" p-id="1736"
     xmlns:xlink="http://www.w3.org/1999/xlink" width="200" height="200">
    <defs>
        <style type="text/css"></style>
    </defs>
    <path d="M373.84192 829.60384h288.48128a81.92 81.92 0 0 1 81.79712 86.54848l-2.78528 48.7424a40.96 40.96 0 0 1-40.87808 38.62528H236.09344a81.92 81.92 0 0 1-81.3056-92.03712l51.4048-413.61408a81.92 81.92 0 0 1 81.5104-71.80288c66.92864 0.16384 110.592 0.08192 131.072-0.2048h149.83168a81.92 81.92 0 0 0 81.18272-70.98368l15.1552-112.59904a40.96 40.96 0 0 0-40.59136-46.40768h-345.2928a40.96 40.96 0 0 1-40.91904-43.29472l3.11296-54.80448A81.92 81.92 0 0 1 323.05152 20.48H793.3952a40.96 40.96 0 0 1 40.67328 45.91616L777.50272 529.2032a81.92 81.92 0 0 1-81.3056 71.96672H429.8752a81.92 81.92 0 0 0-81.14176 70.656l-15.44192 111.16544a40.96 40.96 0 0 0 40.5504 46.61248z"
          p-id="1737" fill="#d81e06"></path>
</svg>