<?xml version="1.0" standalone="no"?><!DOCTYPE svg PUBLIC "-//W3C//DTD SVG 1.1//EN"
        "http://www.w3.org/Graphics/SVG/1.1/DTD/svg11.dtd">
<svg t="1628078747145" class="icon" viewBox="0 0 1024 1024" version="1.1" xmlns="http://www.w3.org/2000/svg" p-id="1943"
     xmlns:xlink="http://www.w3.org/1999/xlink" width="200" height="200">
    <defs>
        <style type="text/css"></style>
    </defs>
    <path d="M175.872 933.76l0.597333-10.496a85.333333 85.333333 0 0 1 85.162667-80.426667h256A85.333333 85.333333 0 0 0 601.6 772.693333l13.525333-74.965333a85.333333 85.333333 0 0 0-83.968-100.48H411.221333a85.333333 85.333333 0 0 1-85.205333-90.24l0.597333-10.496a85.333333 85.333333 0 0 1 85.205334-80.426667h184.32a85.333333 85.333333 0 0 0 82.944-65.28l14.421333-59.776a85.333333 85.333333 0 0 0-82.176-105.386666L367.488 183.466667a85.333333 85.333333 0 0 1-84.437333-90.24l0.725333-12.8A85.333333 85.333333 0 0 1 368.981333 0h249.002667l180.650667 2.986667a85.333333 85.333333 0 0 1 82.986666 97.92l-126.890666 850.346666A85.333333 85.333333 0 0 1 670.336 1024H261.034667a85.333333 85.333333 0 0 1-85.162667-90.24z"
          p-id="1944" fill="#d81e06"></path>
</svg>