<svg id="visual" viewBox="0 0 700 500" width="700" height="500" xmlns="http://www.w3.org/2000/svg" xmlns:xlink="http://www.w3.org/1999/xlink" version="1.1"><rect x="0" y="0" width="700" height="500" fill="#001220"></rect><path d="M448 0L430.3 13.8C412.7 27.7 377.3 55.3 372 83.2C366.7 111 391.3 139 382.3 166.8C373.3 194.7 330.7 222.3 324 250C317.3 277.7 346.7 305.3 345 333.2C343.3 361 310.7 389 316 416.8C321.3 444.7 364.7 472.3 386.3 486.2L408 500L0 500L0 486.2C0 472.3 0 444.7 0 416.8C0 389 0 361 0 333.2C0 305.3 0 277.7 0 250C0 222.3 0 194.7 0 166.8C0 139 0 111 0 83.2C0 55.3 0 27.7 0 13.8L0 0Z" fill="#fa7268"></path><path d="M230 0L237.7 13.8C245.3 27.7 260.7 55.3 256.2 83.2C251.7 111 227.3 139 218.7 166.8C210 194.7 217 222.3 238.5 250C260 277.7 296 305.3 307.7 333.2C319.3 361 306.7 389 287.5 416.8C268.3 444.7 242.7 472.3 229.8 486.2L217 500L0 500L0 486.2C0 472.3 0 444.7 0 416.8C0 389 0 361 0 333.2C0 305.3 0 277.7 0 250C0 222.3 0 194.7 0 166.8C0 139 0 111 0 83.2C0 55.3 0 27.7 0 13.8L0 0Z" fill="#eb5967"></path><path d="M262 0L248.7 13.8C235.3 27.7 208.7 55.3 208.2 83.2C207.7 111 233.3 139 231.7 166.8C230 194.7 201 222.3 179 250C157 277.7 142 305.3 155.3 333.2C168.7 361 210.3 389 212.3 416.8C214.3 444.7 176.7 472.3 157.8 486.2L139 500L0 500L0 486.2C0 472.3 0 444.7 0 416.8C0 389 0 361 0 333.2C0 305.3 0 277.7 0 250C0 222.3 0 194.7 0 166.8C0 139 0 111 0 83.2C0 55.3 0 27.7 0 13.8L0 0Z" fill="#da3f67"></path><path d="M130 0L134.3 13.8C138.7 27.7 147.3 55.3 152.8 83.2C158.3 111 160.7 139 147.7 166.8C134.7 194.7 106.3 222.3 99.8 250C93.3 277.7 108.7 305.3 107.5 333.2C106.3 361 88.7 389 95 416.8C101.3 444.7 131.7 472.3 146.8 486.2L162 500L0 500L0 486.2C0 472.3 0 444.7 0 416.8C0 389 0 361 0 333.2C0 305.3 0 277.7 0 250C0 222.3 0 194.7 0 166.8C0 139 0 111 0 83.2C0 55.3 0 27.7 0 13.8L0 0Z" fill="#c62368"></path></svg>